<svg width="100" height="100" viewBox="0 0 100 100" fill="none" xmlns="http://www.w3.org/2000/svg">
<rect width="100" height="100" rx="50" fill="white"/>
<path d="M50.5 76.375C49.6375 76.375 48.8109 76.2193 48.0203 75.9078C47.2297 75.5964 46.5229 75.1292 45.9 74.5062L26.6375 55.1719C24.9604 53.4948 23.7266 51.5781 22.9359 49.4219C22.1453 47.2656 21.75 45.0135 21.75 42.6656C21.75 37.7302 23.3552 33.4896 26.5656 29.9437C29.776 26.3979 33.7771 24.625 38.5688 24.625C40.8688 24.625 43.037 25.0802 45.0734 25.9906C47.1099 26.901 48.9188 28.1708 50.5 29.8C52.0333 28.1708 53.8182 26.901 55.8547 25.9906C57.8911 25.0802 60.0594 24.625 62.3594 24.625C67.151 24.625 71.1641 26.3979 74.3984 29.9437C77.6328 33.4896 79.25 37.7063 79.25 42.5938C79.25 44.9417 78.8427 47.1938 78.0281 49.35C77.2135 51.5063 75.9917 53.4229 74.3625 55.1L55.0281 74.5062C54.4052 75.1292 53.7104 75.5964 52.9438 75.9078C52.1771 76.2193 51.3625 76.375 50.5 76.375ZM53.375 39C53.8542 39 54.3094 39.1198 54.7406 39.3594C55.1719 39.599 55.5073 39.9104 55.7469 40.2937L60.6344 47.625H72.5656C72.901 46.8104 73.1526 45.9839 73.3203 45.1453C73.488 44.3068 73.5719 43.4562 73.5719 42.5938C73.476 39.2875 72.374 36.4484 70.2656 34.0766C68.1573 31.7047 65.5219 30.5187 62.3594 30.5187C60.874 30.5187 59.4484 30.8063 58.0828 31.3812C56.7172 31.9562 55.5313 32.7948 54.525 33.8969L52.5844 35.9812C52.3448 36.2688 52.0333 36.4964 51.65 36.6641C51.2667 36.8318 50.8833 36.9156 50.5 36.9156C50.1167 36.9156 49.7333 36.8318 49.35 36.6641C48.9667 36.4964 48.6313 36.2688 48.3438 35.9812L46.4031 33.8969C45.3969 32.7948 44.2229 31.9323 42.8813 31.3094C41.5396 30.6865 40.1021 30.375 38.5688 30.375C35.4063 30.375 32.7708 31.5849 30.6625 34.0047C28.5542 36.4245 27.5 39.2875 27.5 42.5938C27.5 43.4562 27.5719 44.3068 27.7156 45.1453C27.8594 45.9839 28.099 46.8104 28.4344 47.625H41.875C42.3542 47.625 42.8094 47.7448 43.2406 47.9844C43.6719 48.224 44.0073 48.5354 44.2469 48.9187L46.7625 52.6562L50.6438 41.0125C50.8354 40.4375 51.1828 39.9583 51.6859 39.575C52.1891 39.1917 52.7521 39 53.375 39ZM54.2375 48.3438L50.3563 59.9875C50.1646 60.5625 49.8052 61.0417 49.2781 61.425C48.751 61.8083 48.176 62 47.5531 62C47.074 62 46.6188 61.8802 46.1875 61.6406C45.7563 61.401 45.4208 61.0896 45.1813 60.7062L40.2938 53.375H32.9625L49.9969 70.4094C50.0927 70.5052 50.1766 70.5651 50.2484 70.5891C50.3203 70.613 50.4042 70.625 50.5 70.625C50.5958 70.625 50.6797 70.613 50.7516 70.5891C50.8234 70.5651 50.9073 70.5052 51.0031 70.4094L67.9656 53.375H59.125C58.6458 53.375 58.1906 53.2552 57.7594 53.0156C57.3281 52.776 56.9688 52.4646 56.6813 52.0812L54.2375 48.3438Z" fill="#F50000"/>
</svg>
