<svg width="100" height="100" viewBox="0 0 100 100" fill="none" xmlns="http://www.w3.org/2000/svg">
<rect width="100" height="100" rx="50" fill="white"/>
<path d="M30.375 76.375C28.7937 76.375 27.4401 75.812 26.3141 74.6859C25.188 73.5599 24.625 72.2062 24.625 70.625V30.375C24.625 28.7937 25.188 27.4401 26.3141 26.3141C27.4401 25.188 28.7937 24.625 30.375 24.625H42.45C43.0729 22.9 44.1151 21.5104 45.5766 20.4562C47.038 19.4021 48.6792 18.875 50.5 18.875C52.3208 18.875 53.962 19.4021 55.4234 20.4562C56.8849 21.5104 57.9271 22.9 58.55 24.625H70.625C72.2062 24.625 73.5599 25.188 74.6859 26.3141C75.812 27.4401 76.375 28.7937 76.375 30.375V70.625C76.375 72.2062 75.812 73.5599 74.6859 74.6859C73.5599 75.812 72.2062 76.375 70.625 76.375H30.375ZM30.375 70.625H70.625V30.375H30.375V70.625ZM36.125 64.875H56.25V59.125H36.125V64.875ZM36.125 53.375H64.875V47.625H36.125V53.375ZM36.125 41.875H64.875V36.125H36.125V41.875ZM50.5 28.2188C51.1229 28.2188 51.638 28.0151 52.0453 27.6078C52.4526 27.2005 52.6562 26.6854 52.6562 26.0625C52.6562 25.4396 52.4526 24.9245 52.0453 24.5172C51.638 24.1099 51.1229 23.9062 50.5 23.9062C49.8771 23.9062 49.362 24.1099 48.9547 24.5172C48.5474 24.9245 48.3438 25.4396 48.3438 26.0625C48.3438 26.6854 48.5474 27.2005 48.9547 27.6078C49.362 28.0151 49.8771 28.2188 50.5 28.2188Z" fill="#EE0000"/>
</svg>
